<svg xmlns="http://www.w3.org/2000/svg" xmlns:xlink="http://www.w3.org/1999/xlink" width="28" height="28" viewBox="0 0 28 28">
  <defs>
    <clipPath id="clip-path">
      <rect id="Rectangle_3326" data-name="Rectangle 3326" width="28" height="28" transform="translate(-15956 -14548)" fill="#1a584d"/>
    </clipPath>
  </defs>
  <g id="Mask_Group_33" data-name="Mask Group 33" transform="translate(15956 14548)" clip-path="url(#clip-path)">
    <path id="Union_76" data-name="Union 76" d="M0,17.392A9.751,9.751,0,0,1,8.2,7.786l-3.657-3.9a.574.574,0,0,1-.373-.571.479.479,0,0,1,.053-.242.518.518,0,0,1,.082-.116L5.852.288A.577.577,0,0,1,6.351,0h6.8a.582.582,0,0,1,.5.288L15.2,2.954a.513.513,0,0,1,.085.12.479.479,0,0,1,.052.251.574.574,0,0,1-.372.562L11.3,7.786A9.731,9.731,0,1,1,0,17.392Zm1.155,0a8.6,8.6,0,1,0,9.165-8.557l-.127.135a.618.618,0,0,1-.88,0h0l-.127-.135A8.6,8.6,0,0,0,1.155,17.392Zm8.6-8.572.034,0H9.718ZM9.9,7.665l3.508-3.742H6.1L9.6,7.665h.3ZM5.749,2.77h8.006l-.936-1.617H6.684ZM3.118,17.392a.492.492,0,0,1,.984,0,5.653,5.653,0,0,0,7.876,5.18.477.477,0,0,1,.193-.04.491.491,0,0,1,.194.942,6.638,6.638,0,0,1-9.247-6.083Zm10.628,4.677a.491.491,0,0,1,0-.695,5.614,5.614,0,0,0,.187-7.77.491.491,0,0,1,.365-.822.494.494,0,0,1,.364.16,6.6,6.6,0,0,1-.22,9.126.492.492,0,0,1-.7,0ZM3.9,15.461a.49.49,0,0,1-.261-.644,6.639,6.639,0,0,1,9.819-2.911.487.487,0,0,1,.208.314.492.492,0,0,1-.759.5A5.654,5.654,0,0,0,4.546,15.2a.492.492,0,0,1-.644.261Z" transform="translate(-15951.752 -14548)" fill="#1a584d"/>
  </g>
</svg>
