<svg xmlns="http://www.w3.org/2000/svg" width="17.173" height="17.908" viewBox="0 0 17.173 17.908">
  <g id="Group_291" data-name="Group 291" transform="translate(0.5 0.5)">
    <path id="Path_17673" data-name="Path 17673" d="M15.954,20.778H1.235A1.237,1.237,0,0,1,0,19.543V8.516a.5.5,0,0,1,1,0V19.543a.241.241,0,0,0,.235.235H15.954a.228.228,0,0,0,.219-.235V8.516a.5.5,0,0,1,1,0V19.543A1.229,1.229,0,0,1,15.954,20.778Z" transform="translate(-0.5 -3.37)" fill="#424446"/>
    <path id="Path_17674" data-name="Path 17674" d="M9.116,15.427a.5.5,0,0,1-.277-.084L2.223,10.932a.5.5,0,0,1,.555-.832l6.339,4.226L15.455,10.1a.5.5,0,0,1,.555.832L9.393,15.343A.5.5,0,0,1,9.116,15.427Z" transform="translate(-1.03 -3.9)" fill="#424446"/>
    <path id="Path_17675" data-name="Path 17675" d="M16.672,7.162a.5.5,0,0,1-.268-.078L8.586,2.108.768,7.084A.5.5,0,1,1,.232,6.24L8.318,1.094a.5.5,0,0,1,.537,0L16.941,6.24a.5.5,0,0,1-.269.922Z" transform="translate(-0.5 -1.516)" fill="#424446"/>
    <path id="Line_1031" data-name="Line 1031" d="M3.675,3.441a.5.5,0,0,1-.312-.11L-.312.39a.5.5,0,0,1-.078-.7.5.5,0,0,1,.7-.078L3.988,2.55a.5.5,0,0,1-.313.89Z" transform="translate(10.292 12.497)" fill="#424446"/>
    <path id="Line_1032" data-name="Line 1032" d="M0,3.441A.5.5,0,0,1-.39,3.253a.5.5,0,0,1,.078-.7L3.363-.39a.5.5,0,0,1,.7.078.5.5,0,0,1-.078.7L.312,3.331A.5.5,0,0,1,0,3.441Z" transform="translate(2.205 12.497)" fill="#424446"/>
  </g>
</svg>
