<svg xmlns="http://www.w3.org/2000/svg" width="16.699" height="18.184" viewBox="0 0 16.699 18.184">
  <g id="Group_286" data-name="Group 286" transform="translate(0.001)">
    <path id="Path_17662" data-name="Path 17662" d="M80.755,5.52H77.019a.5.5,0,0,1-.354-.854L81.148.183A.5.5,0,0,1,82,.537V4.273A1.249,1.249,0,0,1,80.755,5.52Zm-2.529-1h2.529A.247.247,0,0,0,81,4.273V1.744Z" transform="translate(-76.519 -0.037)" fill="#424446"/>
    <path id="Path_17663" data-name="Path 17663" d="M90.468,20.26h-12.7a1.249,1.249,0,0,1-1.247-1.247V8.6a.5.5,0,0,1,1,0V19.013a.247.247,0,0,0,.247.247h12.7a.247.247,0,0,0,.247-.247v-5.93a.5.5,0,0,1,1,0v5.93A1.249,1.249,0,0,1,90.468,20.26Z" transform="translate(-76.519 -2.076)" fill="#424446"/>
    <path id="Path_17664" data-name="Path 17664" d="M93.238,5.52a.5.5,0,0,1-.5-.5V1.284a.247.247,0,0,0-.247-.247H85.019a.5.5,0,0,1,0-1h7.472a1.249,1.249,0,0,1,1.247,1.247V5.02A.5.5,0,0,1,93.238,5.52Z" transform="translate(-78.542 -0.037)" fill="#424446"/>
    <path id="Path_17665" data-name="Path 17665" d="M85.657,17.92a.5.5,0,0,1-.455-.707l1.321-2.906a.5.5,0,0,1,.1-.147l6.34-6.34a.5.5,0,0,1,.707,0l1.585,1.585a.5.5,0,0,1,0,.707l-6.34,6.34a.5.5,0,0,1-.147.1l-2.906,1.321A.5.5,0,0,1,85.657,17.92ZM87.4,14.8l-.732,1.609,1.609-.732L94.195,9.76l-.878-.878Z" transform="translate(-78.703 -1.968)" fill="#424446"/>
    <path id="Line_1022" data-name="Line 1022" d="M1.239,1.938-.353.354.353-.354,1.944,1.23Z" transform="translate(13.366 7.448)" fill="#424446"/>
    <path id="Line_1023" data-name="Line 1023" d="M1.23,1.944-.354.353.354-.353,1.938,1.239Z" transform="translate(8.27 12.543)" fill="#424446"/>
  </g>
</svg>
