<svg xmlns="http://www.w3.org/2000/svg" xmlns:xlink="http://www.w3.org/1999/xlink" width="28" height="28" viewBox="0 0 28 28">
  <defs>
    <clipPath id="clip-path">
      <rect id="Rectangle_3325" data-name="Rectangle 3325" width="28" height="28" transform="translate(-15910 -14548)" fill="#1a584d"/>
    </clipPath>
  </defs>
  <g id="Mask_Group_32" data-name="Mask Group 32" transform="translate(15910 14548)" clip-path="url(#clip-path)">
    <g id="Group_280" data-name="Group 280" transform="translate(-15908.612 -14546.918)">
      <path id="Union_50" data-name="Union 50" d="M7.075,25.7a1.449,1.449,0,0,1-.379-.358l-.576-.752a3.111,3.111,0,0,0-1.1-.82l-1.18-.446a2.706,2.706,0,0,1-.9-.6,2.7,2.7,0,0,1-.617-.894L1.9,20.768a3.447,3.447,0,0,0-.834-1.135l-.593-.479a1.22,1.22,0,0,1-.438-.6.77.77,0,0,1,.282-.832A1.129,1.129,0,0,1,1,17.525l.087,0,4.892.214a6.072,6.072,0,0,1,.858-7.493l3.419-3.418a6.067,6.067,0,0,1,7.495-.859l-.214-4.892a1.092,1.092,0,0,1,.254-.845A.745.745,0,0,1,18.33,0a.836.836,0,0,1,.443.132,1.452,1.452,0,0,1,.379.358l.576.752a3.107,3.107,0,0,0,1.1.819l1.18.446a2.7,2.7,0,0,1,.9.6A2.7,2.7,0,0,1,23.532,4l.421,1.064A3.441,3.441,0,0,0,24.787,6.2l.593.479a1.221,1.221,0,0,1,.438.6.767.767,0,0,1-.284.832,1.126,1.126,0,0,1-.682.192l-.087,0-4.97-.217a6.068,6.068,0,0,1-.971,7.309l-3.419,3.419A6.069,6.069,0,0,1,8.1,19.79l.217,4.967a1.094,1.094,0,0,1-.254.845.747.747,0,0,1-.543.233A.837.837,0,0,1,7.075,25.7ZM2.539,19.42a4.161,4.161,0,0,1,.513.89l.421,1.064a1.475,1.475,0,0,0,.335.463,1.478,1.478,0,0,0,.469.328l1.18.446a3.916,3.916,0,0,1,.9.513,4.166,4.166,0,0,1,.668.611l-.192-4.392a.376.376,0,0,0-.336-.336l-4.487-.2A4.6,4.6,0,0,1,2.539,19.42ZM11.132,7.709,7.713,11.127a4.817,4.817,0,0,0,6.813,6.813l3.419-3.419a4.817,4.817,0,1,0-6.813-6.812Zm7.883-1.217a.377.377,0,0,0,.335.336l4.487.2a4.608,4.608,0,0,1-.529-.608,4.169,4.169,0,0,1-.513-.89l-.421-1.064A1.479,1.479,0,0,0,22.04,4a1.479,1.479,0,0,0-.468-.328l-1.181-.446a3.9,3.9,0,0,1-.9-.514,4.131,4.131,0,0,1-.668-.611Zm-8.044,12.1a.622.622,0,0,1,.324-1.086,3.92,3.92,0,0,0,.99-.268L17.139,12.5a3.893,3.893,0,0,0,.344-1.042.622.622,0,1,1,1.224.22,5.135,5.135,0,0,1-1.431,2.733l-2.856,2.856a5.122,5.122,0,0,1-2.958,1.467h0a.629.629,0,0,1-.083.005A.622.622,0,0,1,10.971,18.591Z" transform="translate(0)" fill="#1a584d"/>
    </g>
  </g>
</svg>
