<svg id="Group_295" data-name="Group 295" xmlns="http://www.w3.org/2000/svg" xmlns:xlink="http://www.w3.org/1999/xlink" width="17.881" height="18" viewBox="0 0 17.881 18">
  <defs>
    <clipPath id="clip-path">
      <rect id="Rectangle_2783" data-name="Rectangle 2783" width="17.881" height="18" fill="none" stroke="#424446" stroke-width="1"/>
    </clipPath>
  </defs>
  <g id="Group_197" data-name="Group 197" transform="translate(0 0)" clip-path="url(#clip-path)">
    <path id="Path_17705" data-name="Path 17705" d="M1.307,21.5a3.467,3.467,0,0,1-.841-.1A.5.5,0,0,1,.1,21.033a3.725,3.725,0,0,1,.079-2.006,4.639,4.639,0,0,1,2.993-2.993.5.5,0,0,1,.3.955,3.64,3.64,0,0,0-2.334,2.334,2.836,2.836,0,0,0-.12,1.159,2.835,2.835,0,0,0,1.159-.12,3.547,3.547,0,0,0,1.447-.887,3.547,3.547,0,0,0,.887-1.447.5.5,0,0,1,.955.3,4.55,4.55,0,0,1-1.135,1.858,4.55,4.55,0,0,1-1.858,1.135A3.932,3.932,0,0,1,1.307,21.5Z" transform="translate(-0.103 -3.396)" fill="#424446"/>
    <path id="Path_17706" data-name="Path 17706" d="M15.387,0A10.421,10.421,0,0,1,17.72.28.5.5,0,0,1,18.1.685a9.921,9.921,0,0,1-1.773,7.676l-.009.013a9.047,9.047,0,0,1-6.463,3.5l.924,2.772a.5.5,0,0,1-.121.512L8.413,17.409a.5.5,0,0,1-.854-.353V14.908a7.056,7.056,0,0,0-4.086-4.093H1.319a.5.5,0,0,1-.354-.854L3.212,7.715a.5.5,0,0,1,.512-.121l2.8.932a12.185,12.185,0,0,1,3.423-6.42l.03-.029A7.961,7.961,0,0,1,15.387,0Zm1.778,1.183A9.18,9.18,0,0,0,15.387,1a6.894,6.894,0,0,0-4.735,1.812A10.966,10.966,0,0,0,7.433,9.244a.5.5,0,0,1-.655.423L3.7,8.641,2.526,9.815H3.565a.5.5,0,0,1,.176.032A8.131,8.131,0,0,1,8.522,14.62a.5.5,0,0,1,.037.189v1.04l1.174-1.175L8.708,11.6a.5.5,0,0,1,.44-.657,8.284,8.284,0,0,0,6.374-3.17A8.794,8.794,0,0,0,17.165,1.183Z" transform="translate(-0.271 -0.103)" fill="#424446"/>
    <path id="Ellipse_115" data-name="Ellipse 115" d="M1.588-.5A2.088,2.088,0,1,1-.5,1.588,2.091,2.091,0,0,1,1.588-.5Zm0,3.177A1.088,1.088,0,1,0,.5,1.588,1.09,1.09,0,0,0,1.588,2.677Z" transform="translate(11.816 3.007)" fill="#424446"/>
  </g>
</svg>
