<svg xmlns="http://www.w3.org/2000/svg" xmlns:xlink="http://www.w3.org/1999/xlink" width="28" height="28" viewBox="0 0 28 28">
  <defs>
    <clipPath id="clip-path">
      <rect id="Rectangle_3324" data-name="Rectangle 3324" width="28" height="28" transform="translate(-15866 -14548)" fill="#1a584d"/>
    </clipPath>
  </defs>
  <g id="Mask_Group_31" data-name="Mask Group 31" transform="translate(15866 14548)" clip-path="url(#clip-path)">
    <path id="Union_75" data-name="Union 75" d="M20.408,26.363a.738.738,0,0,1,.021-.474.753.753,0,0,1,.354-.32l1.864-.669-2.767-7.489a3.528,3.528,0,0,1-.619.055,3.584,3.584,0,0,1-1.6-.376,3.506,3.506,0,0,1-1.822-2.135l-3.1-10.144a.508.508,0,0,1,.318-.626l4.6-1.649a.521.521,0,0,1,.176-.031.516.516,0,0,1,.474.308l4.245,9.733a3.445,3.445,0,0,1,0,2.791,3.51,3.51,0,0,1-1.49,1.649l2.768,7.491,1.866-.669a.771.771,0,0,1,.214-.037.628.628,0,0,1,.589.407.607.607,0,0,1-.02.471.619.619,0,0,1-.355.323l-4.909,1.76a.771.771,0,0,1-.214.037A.629.629,0,0,1,20.408,26.363ZM15.462,9.432,17.041,14.6a2.275,2.275,0,0,0,1.183,1.386,2.33,2.33,0,0,0,1.039.245,2.361,2.361,0,0,0,.8-.14A2.287,2.287,0,0,0,21.4,14.847a2.234,2.234,0,0,0,0-1.81L19.237,8.078ZM14.143,5.114l.956,3.13L18.74,6.939l-1.31-3ZM5.508,24.432.464,23.107a.62.62,0,0,1-.382-.291.608.608,0,0,1-.061-.467.629.629,0,0,1,.551-.457l.04,0a.8.8,0,0,1,.176.02l1.917.5,2.105-7.7A3.51,3.51,0,0,1,3.184,13.2a3.446,3.446,0,0,1-.246-2.78L6.32.35A.516.516,0,0,1,6.766,0l.045,0a.525.525,0,0,1,.133.017l4.724,1.241a.508.508,0,0,1,.371.6l-2.2,10.376A3.508,3.508,0,0,1,8.2,14.517a3.585,3.585,0,0,1-1.56.514c-.1.009-.2.013-.3.013s-.212,0-.319-.014l-2.1,7.7,1.916.5a.62.62,0,0,1,.382.291.608.608,0,0,1,.061.467.629.629,0,0,1-.551.457l-.041,0A.788.788,0,0,1,5.508,24.432ZM4.129,10.8a2.234,2.234,0,0,0,.159,1.8,2.287,2.287,0,0,0,1.436,1.12h.005a2.373,2.373,0,0,0,.6.079c.067,0,.135,0,.2-.009a2.328,2.328,0,0,0,1.014-.335,2.276,2.276,0,0,0,1.058-1.484L9.73,6.694,5.852,5.675ZM6.247,4.5l3.741.983.68-3.2L7.291,1.39Z" transform="translate(-15864.784 -14547.385)" fill="#1a584d"/>
  </g>
</svg>
