<svg id="Group_288" data-name="Group 288" xmlns="http://www.w3.org/2000/svg" width="14.797" height="16.866" viewBox="0 0 14.797 16.866">
  <path id="Path_17670" data-name="Path 17670" d="M166.607,16.123H154.19a1.191,1.191,0,0,1-1.19-1.19V13.464a1.21,1.21,0,0,1,.9-1.153c1.279-.366,1.559-2.1,1.857-5.7a5.5,5.5,0,0,1,1.218-3.128,4.712,4.712,0,0,1,6.839,0,5.5,5.5,0,0,1,1.218,3.128c.3,3.6.578,5.331,1.856,5.7a1.21,1.21,0,0,1,.905,1.153v1.469A1.191,1.191,0,0,1,166.607,16.123ZM160.4,3.016c-3.1,0-3.569,2.817-3.641,3.68-.307,3.708-.6,6.009-2.577,6.576-.083.024-.18.089-.18.192v1.469a.19.19,0,0,0,.19.19h12.417a.19.19,0,0,0,.19-.19V13.464c0-.1-.1-.168-.181-.192-1.981-.567-2.27-2.868-2.576-6.575C163.968,5.833,163.495,3.016,160.4,3.016Z" transform="translate(-153 -2.016)" fill="#424446"/>
  <path id="Path_17671" data-name="Path 17671" d="M162.88,24.775A1.882,1.882,0,0,1,161,22.9v-1.38a.5.5,0,0,1,.5-.5h2.759a.5.5,0,0,1,.5.5V22.9A1.882,1.882,0,0,1,162.88,24.775ZM162,22.016v.88a.88.88,0,0,0,1.759,0v-.88Z" transform="translate(-155.481 -7.909)" fill="#424446"/>
</svg>
