<svg xmlns="http://www.w3.org/2000/svg" xmlns:xlink="http://www.w3.org/1999/xlink" width="28" height="28" viewBox="0 0 28 28">
  <defs>
    <clipPath id="clip-path">
      <rect id="Rectangle_3319" data-name="Rectangle 3319" width="28" height="28" transform="translate(-15910 -14501)" fill="#1a584d"/>
    </clipPath>
  </defs>
  <g id="Mask_Group_35" data-name="Mask Group 35" transform="translate(15910 14501)" clip-path="url(#clip-path)">
    <path id="Union_78" data-name="Union 78" d="M10.029,24.459A10.913,10.913,0,0,1,6.978,22.82a11.271,11.271,0,0,1-2.417-2.526,11.5,11.5,0,0,1-1.544-3.157,3.328,3.328,0,0,1-1.133-.352,3.408,3.408,0,0,1-1.013-.8,3.646,3.646,0,0,1-.85-2.765,3.494,3.494,0,0,1,3-3.121A11.575,11.575,0,0,1,4.113,7.649,11.42,11.42,0,0,1,5.766,5.493a11.13,11.13,0,0,1,2.1-1.686,10.784,10.784,0,0,1,2.387-1.1,3.584,3.584,0,0,1,.412-1.036,3.465,3.465,0,0,1,.745-.882A3.339,3.339,0,0,1,12.4.208,3.3,3.3,0,0,1,13.56,0a4.165,4.165,0,0,1,4.082,4.234A5.034,5.034,0,0,1,12.708,9.35a.7.7,0,0,1,0-1.4,3.658,3.658,0,0,0,3.586-3.719A2.789,2.789,0,0,0,13.56,1.4a2.073,2.073,0,0,0-2.042,1.914v.006c-.007.074-.01.142-.01.208A1.538,1.538,0,0,0,13.014,5.09a.9.9,0,0,0,.676-.237.976.976,0,0,0,.229-.7A.736.736,0,0,0,13.2,3.4a.688.688,0,0,1-.674-.7.707.707,0,0,1,.2-.494A.658.658,0,0,1,13.2,2a2.112,2.112,0,0,1,2.07,2.146A2.709,2.709,0,0,1,15.1,5.1a2.131,2.131,0,0,1-.462.742,2.038,2.038,0,0,1-.715.479,2.447,2.447,0,0,1-.914.168,2.742,2.742,0,0,1-1-.189,2.824,2.824,0,0,1-.847-.52,3,3,0,0,1-.932-1.6,9.507,9.507,0,0,0-1.852.933A9.8,9.8,0,0,0,6.669,6.526,10.035,10.035,0,0,0,5.3,8.3a10.156,10.156,0,0,0-.906,1.93,3.394,3.394,0,0,1,.63.266,3.347,3.347,0,0,1,.678.49.717.717,0,0,1,.049.987.657.657,0,0,1-.952.051A2.033,2.033,0,0,0,3.5,11.477l-.115,0a1.788,1.788,0,0,0-.2.011,2.111,2.111,0,0,0-1.819,1.886,2.186,2.186,0,0,0,.514,1.679,2.043,2.043,0,0,0,1.543.715.348.348,0,0,1,.049,0h0l.057,0a.664.664,0,0,1,.4.14.69.69,0,0,1,.245.373A9.752,9.752,0,0,0,13.5,23.645a9.75,9.75,0,0,0,9.323-7.371.688.688,0,0,1,.245-.373.656.656,0,0,1,.487-.134l.027,0a2.042,2.042,0,0,0,1.543-.715,2.184,2.184,0,0,0,.514-1.679,2.111,2.111,0,0,0-1.819-1.886,1.77,1.77,0,0,0-.2-.011l-.112,0H23.5a2.031,2.031,0,0,0-1.3.546.657.657,0,0,1-.952-.051.717.717,0,0,1,.049-.987,3.34,3.34,0,0,1,.673-.488,3.386,3.386,0,0,1,.626-.266A10.261,10.261,0,0,0,21.368,7.8a9.826,9.826,0,0,0-1.92-2.09.7.7,0,0,1-.254-.465.713.713,0,0,1,.138-.516.673.673,0,0,1,.241-.2.659.659,0,0,1,.291-.068.651.651,0,0,1,.415.149,11.254,11.254,0,0,1,2.269,2.5,11.623,11.623,0,0,1,1.43,2.988,3.494,3.494,0,0,1,3,3.121,3.648,3.648,0,0,1-.85,2.765,3.41,3.41,0,0,1-1.014.8,3.325,3.325,0,0,1-1.134.351,11.5,11.5,0,0,1-1.544,3.157A11.269,11.269,0,0,1,20.02,22.82a10.908,10.908,0,0,1-3.05,1.639,10.6,10.6,0,0,1-6.941,0Zm.247-5.824a.716.716,0,0,1-.105-.524.7.7,0,0,1,.283-.448.655.655,0,0,1,.379-.121.668.668,0,0,1,.557.3,2.5,2.5,0,0,0,4.22,0,.668.668,0,0,1,.557-.305.655.655,0,0,1,.379.121.7.7,0,0,1,.283.448.716.716,0,0,1-.105.524,3.822,3.822,0,0,1-6.448,0ZM17.766,15V14.05a.675.675,0,1,1,1.348,0V15a.675.675,0,1,1-1.348,0ZM7.987,15V14.05a.675.675,0,1,1,1.348,0V15a.675.675,0,1,1-1.348,0Z" transform="translate(-15909.188 -14499.223)" fill="#1a584d"/>
  </g>
</svg>
