<svg xmlns="http://www.w3.org/2000/svg" width="17.167" height="19.152" viewBox="0 0 17.167 19.152">
  <g id="Group_294" data-name="Group 294" transform="translate(-1172.281 -3858.152)">
    <path id="Union_17" data-name="Union 17" d="M12271.465,3921.311c-.035-.3-.083-.72-.137-1.231q-.176.169-.365.322a5.822,5.822,0,0,1-3.69,1.241,7.889,7.889,0,0,1-2-.271,11.738,11.738,0,0,1-8.268-10.3,6.293,6.293,0,0,1,2.175-5.338,6.137,6.137,0,0,1,3.225-1.223,1.01,1.01,0,0,1,.136-.006,1.453,1.453,0,0,1,1.457,1.451c0,2.566.838,2.658,1.152,2.692a1.671,1.671,0,0,0,1.247-.44,2.921,2.921,0,0,1,1.892-.69c.1,0,.194,0,.289.012a2.873,2.873,0,0,1,1.963,1.053l.046.059q.3.374.57.767c.019-.061.038-.117.059-.169v-1.324a1.746,1.746,0,0,1-.552-1.276c0-2.119,2.332-3.521,2.431-3.579a.4.4,0,0,1,.6.422,3.524,3.524,0,0,0,.231,2.246,2.356,2.356,0,0,1,.236.912,1.748,1.748,0,0,1-.521,1.246v1.374a18.659,18.659,0,0,1,.274,5.673c-.129,2.637-.44,5.344-.566,6.386a.953.953,0,0,1-1.892,0Zm.8-.1a.145.145,0,0,0,.287,0c.123-1.032.428-3.718.561-6.33.163-3.261-.021-4.741-.242-5.407a.416.416,0,0,1-.023-.069c-.014-.036-.026-.069-.04-.1h-.732c-.148.209-.552,1.158-.376,5.209.07,1.572.206,3.208.333,4.52a.484.484,0,0,1,.007.065C12272.131,3920.013,12272.215,3920.761,12272.269,3921.216Zm-9.783-15.9a5.291,5.291,0,0,0-2.794,1.051c-2.692,2.162-2.471,6.928.5,10.624a9.607,9.607,0,0,0,7.079,3.844,5.017,5.017,0,0,0,3.188-1.06,4.489,4.489,0,0,0,.764-.779c-.124-1.3-.255-2.9-.323-4.439a27.468,27.468,0,0,1,.046-3.984,11.76,11.76,0,0,0-.982-1.425l-.043-.055a2.063,2.063,0,0,0-1.41-.755c-.071-.006-.143-.012-.21-.012a2.121,2.121,0,0,0-1.374.505,2.476,2.476,0,0,1-1.857.622,1.811,1.811,0,0,1-1.524-1.211,5.984,5.984,0,0,1-.346-2.286.636.636,0,0,0-.212-.474.655.655,0,0,0-.439-.169Zm10.354,3.188v-.162a1.759,1.759,0,0,1-.813.007v.155Zm-1.361-1.864a.941.941,0,1,0,1.882,0,1.765,1.765,0,0,0-.176-.607,4.222,4.222,0,0,1-.373-1.753A3.377,3.377,0,0,0,12271.478,3906.636Zm-5.213,11.573a1.519,1.519,0,1,1,1.519,1.522A1.52,1.52,0,0,1,12266.265,3918.209Zm.811,0a.71.71,0,1,0,.708-.708A.711.711,0,0,0,12267.075,3918.209Zm-4.694-1.392a1.52,1.52,0,1,1,1.519,1.522A1.52,1.52,0,0,1,12262.381,3916.817Zm.81,0a.71.71,0,1,0,.709-.708A.711.711,0,0,0,12263.19,3916.817Zm-3.48-3.194a1.52,1.52,0,1,1,1.521,1.519A1.522,1.522,0,0,1,12259.71,3913.622Zm.811,0a.71.71,0,1,0,.711-.712A.711.711,0,0,0,12260.521,3913.622Zm6.213-1.035a2.658,2.658,0,0,1-.086-1.716,1.644,1.644,0,0,1,.973-1.115,1.457,1.457,0,0,1,.527-.1,2.315,2.315,0,0,1,2.011,1.633,2.75,2.75,0,0,1,.1,1.679,1.65,1.65,0,0,1-.992,1.152,1.449,1.449,0,0,1-.527.1A2.315,2.315,0,0,1,12266.733,3912.587Zm1.174-2.073c-.527.2-.715,1-.416,1.787a1.539,1.539,0,0,0,1.25,1.109.623.623,0,0,0,.24-.043.866.866,0,0,0,.5-.616,1.909,1.909,0,0,0-.08-1.17,1.545,1.545,0,0,0-1.253-1.109A.633.633,0,0,0,12267.907,3910.514Zm-8.764-1.044a1.52,1.52,0,1,1,1.519,1.519A1.52,1.52,0,0,1,12259.144,3909.47Zm.81,0a.71.71,0,1,0,.709-.712A.709.709,0,0,0,12259.953,3909.47Z" transform="translate(-11084.72 -44.848)" fill="#424446"/>
  </g>
</svg>
