<svg id="Group_287" data-name="Group 287" xmlns="http://www.w3.org/2000/svg" width="14.641" height="19.456" viewBox="0 0 14.641 19.456">
  <path id="Path_17666" data-name="Path 17666" d="M137.241,3.444h-7.222a.5.5,0,0,1-.5-.5v-.8a2.107,2.107,0,0,1,2.1-2.1h4.012a2.107,2.107,0,0,1,2.1,2.1v.8A.5.5,0,0,1,137.241,3.444Zm-6.722-1h6.222v-.3a1.106,1.106,0,0,0-1.1-1.1h-4.012a1.106,1.106,0,0,0-1.1,1.1Z" transform="translate(-126.309 -0.037)" fill="#424446"/>
  <path id="Path_17667" data-name="Path 17667" d="M139.661,19.888H126.019a.5.5,0,0,1-.5-.5V2.537a.5.5,0,0,1,.5-.5h1.6a.5.5,0,1,1,0,1h-1.1V18.888h12.641V3.037h-1.1a.5.5,0,0,1,0-1h1.6a.5.5,0,0,1,.5.5V19.388A.5.5,0,0,1,139.661,19.888Z" transform="translate(-125.519 -0.432)" fill="#424446"/>
  <path id="Path_17668" data-name="Path 17668" d="M129.624,11.444a.5.5,0,0,1-.354-.146l-1.6-1.6a.5.5,0,1,1,.707-.707l1.251,1.251,2.054-2.054a.5.5,0,0,1,.707.707L129.978,11.3A.5.5,0,0,1,129.624,11.444Z" transform="translate(-125.914 -1.617)" fill="#424446"/>
  <path id="Line_1024" data-name="Line 1024" d="M3.21.5H0A.5.5,0,0,1-.5,0,.5.5,0,0,1,0-.5H3.21a.5.5,0,0,1,.5.5A.5.5,0,0,1,3.21.5Z" transform="translate(8.525 8.524)" fill="#424446"/>
  <path id="Path_17669" data-name="Path 17669" d="M129.624,17.444a.5.5,0,0,1-.354-.146l-1.6-1.6a.5.5,0,1,1,.707-.707l1.251,1.251,2.054-2.054a.5.5,0,1,1,.707.707L129.978,17.3A.5.5,0,0,1,129.624,17.444Z" transform="translate(-125.914 -2.803)" fill="#424446"/>
  <path id="Line_1025" data-name="Line 1025" d="M3.21.5H0A.5.5,0,0,1-.5,0,.5.5,0,0,1,0-.5H3.21a.5.5,0,0,1,.5.5A.5.5,0,0,1,3.21.5Z" transform="translate(8.525 13.339)" fill="#424446"/>
</svg>
