<svg id="Group_293" data-name="Group 293" xmlns="http://www.w3.org/2000/svg" xmlns:xlink="http://www.w3.org/1999/xlink" width="20.719" height="18" viewBox="0 0 20.719 18">
  <defs>
    <clipPath id="clip-path">
      <rect id="Rectangle_2782" data-name="Rectangle 2782" width="20.719" height="18" fill="#424446"/>
    </clipPath>
  </defs>
  <g id="Group_193" data-name="Group 193" clip-path="url(#clip-path)">
    <path id="Path_17694" data-name="Path 17694" d="M18.276,5.613a9.869,9.869,0,0,0-1.021-.522V1.532c0-.009,0-.017,0-.026A1.531,1.531,0,0,0,15.723,0H5A1.532,1.532,0,0,0,3.468,1.532V11.786a7.431,7.431,0,0,1-1.021-.612A2.863,2.863,0,0,1,1.029,9,2.866,2.866,0,0,1,2.447,6.83V5.608C.915,6.512,0,7.692,0,9s.915,2.488,2.447,3.393a9.751,9.751,0,0,0,1.021.522v3.554A1.532,1.532,0,0,0,5,18H15.723a1.532,1.532,0,0,0,1.531-1.506c0-.009,0-.017,0-.026V6.218a7.373,7.373,0,0,1,1.021.613A2.869,2.869,0,0,1,19.7,9a2.859,2.859,0,0,1-1.422,2.171v1.218c1.572-.925,2.443-2.113,2.443-3.39,0-1.306-.913-2.485-2.443-3.389M5,16.978a.511.511,0,0,1-.511-.511V13.31q.491.168,1.022.305a19.386,19.386,0,0,0,4.849.586h1.81l-1.225.964a.511.511,0,0,0,.632.8l2.3-1.81a.508.508,0,0,0,.267-.575l0-.012c0-.008,0-.016-.006-.024a.508.508,0,0,0-.174-.258l-2.382-1.876a.511.511,0,1,0-.632.8l1.238.975H10.363a16.126,16.126,0,0,1-4.853-.645q-.516-.151-1.022-.337V1.532A.511.511,0,0,1,5,1.021H15.723a.511.511,0,0,1,.511.511V16.468a.511.511,0,0,1-.511.511Z" fill="#424446"/>
  </g>
</svg>
