<svg xmlns="http://www.w3.org/2000/svg" width="17.908" height="17.908" viewBox="0 0 17.908 17.908">
  <g id="Group_290" data-name="Group 290" transform="translate(0.5 0.5)">
    <path id="Rectangle_2768" data-name="Rectangle 2768" d="M0-.5H3.676a.5.5,0,0,1,.5.5V8.086a.5.5,0,0,1-.5.5H0a.5.5,0,0,1-.5-.5V0A.5.5,0,0,1,0-.5ZM3.176.5H.5V7.586H3.176Z" transform="translate(6.616 8.821)" fill="#424446"/>
    <path id="Rectangle_2769" data-name="Rectangle 2769" d="M0-.5H3.676a.5.5,0,0,1,.5.5V12.13a.5.5,0,0,1-.5.5H0a.5.5,0,0,1-.5-.5V0A.5.5,0,0,1,0-.5ZM3.176.5H.5V11.63H3.176Z" transform="translate(0 4.778)" fill="#424446"/>
    <path id="Rectangle_2770" data-name="Rectangle 2770" d="M0-.5H3.676a.5.5,0,0,1,.5.5V16.908a.5.5,0,0,1-.5.5H0a.5.5,0,0,1-.5-.5V0A.5.5,0,0,1,0-.5ZM3.176.5H.5V16.408H3.176Z" transform="translate(13.232 0)" fill="#424446"/>
  </g>
</svg>
