<svg xmlns="http://www.w3.org/2000/svg" xmlns:xlink="http://www.w3.org/1999/xlink" width="28" height="28" viewBox="0 0 28 28">
  <defs>
    <clipPath id="clip-path">
      <rect id="Rectangle_3320" data-name="Rectangle 3320" width="28" height="28" transform="translate(-15954 -14501)" fill="#1a584d"/>
    </clipPath>
  </defs>
  <g id="Mask_Group_34" data-name="Mask Group 34" transform="translate(15954 14501)" clip-path="url(#clip-path)">
    <path id="Union_77" data-name="Union 77" d="M21.158,21.622a11.825,11.825,0,0,1-3.308-.859,33.746,33.746,0,0,1-4.03-1.922c-.7-.384-1.409-.8-2.119-1.241s-1.409-.9-2.093-1.365-1.368-.962-2.028-1.463-1.312-1.019-1.924-1.533a34.234,34.234,0,0,1-3.261-3.081,12.191,12.191,0,0,1-2.022-2.8A2.3,2.3,0,0,1,.261,5.048,9.555,9.555,0,0,1,2.34,3.063,16.267,16.267,0,0,1,4.194,1.87,16,16,0,0,1,6.517.817,14.094,14.094,0,0,1,8.985.174,13.062,13.062,0,0,1,11.1,0c.277,0,.555.009.829.027a12.563,12.563,0,0,1,1.61.212,12.888,12.888,0,0,1,1.682.455,13.839,13.839,0,0,1,1.736.736,15.941,15.941,0,0,1,3.4,2.332,14.1,14.1,0,0,1,1.321,1.361A13.283,13.283,0,0,1,22.718,6.54a13.07,13.07,0,0,1,.8,1.439,13.5,13.5,0,0,1,.968,2.829,14.768,14.768,0,0,1,.338,2.568,16.687,16.687,0,0,1-.089,2.585,16.869,16.869,0,0,1-.393,2.2,9.743,9.743,0,0,1-1.03,2.7,2.031,2.031,0,0,1-1.822.773C21.381,21.634,21.27,21.63,21.158,21.622ZM6.781,2.015a14.774,14.774,0,0,0-2.109.99A15.5,15.5,0,0,0,3,4.1a12.8,12.8,0,0,0-1.166.988,4.6,4.6,0,0,0-.574.638.534.534,0,0,0-.044.355,2.549,2.549,0,0,0,.257.749A7.564,7.564,0,0,0,2.1,7.867,15.676,15.676,0,0,0,3.1,9.106a40.187,40.187,0,0,0,7.184,6.117,39.786,39.786,0,0,0,8.267,4.484,15.264,15.264,0,0,0,1.5.473,7.3,7.3,0,0,0,1.177.21c.105.009.206.013.3.013a1.95,1.95,0,0,0,.479-.051.507.507,0,0,0,.306-.175,4.663,4.663,0,0,0,.367-.78,13.142,13.142,0,0,0,.464-1.47,16.027,16.027,0,0,0,.375-1.992,15.409,15.409,0,0,0,.112-2.36,12.619,12.619,0,0,0-1.242-5.192,11.683,11.683,0,0,0-.738-1.293A12.08,12.08,0,0,0,20.7,5.834a13.06,13.06,0,0,0-1.19-1.2,15.016,15.016,0,0,0-3.028-2.077,12.809,12.809,0,0,0-1.543-.672,11.736,11.736,0,0,0-1.5-.428,11.278,11.278,0,0,0-1.455-.212c-.293-.023-.591-.035-.886-.035A12.288,12.288,0,0,0,6.781,2.015ZM16.74,18.48a.555.555,0,0,1-.286-.08l-.027-.018h0a.578.578,0,0,1-.169-.765,16.9,16.9,0,0,0,1.84-4.592,17.589,17.589,0,0,0,.478-3.981c0-.531-.018-1.066-.062-1.587-.035-.418-.086-.831-.15-1.225a10.1,10.1,0,0,0-.226-1.08.579.579,0,0,1,.148-.577.451.451,0,0,1,.258-.207.448.448,0,0,1,.522.206.571.571,0,0,1,.148.245,10.863,10.863,0,0,1,.277,1.267c.071.426.126.87.165,1.319.048.555.07,1.123.066,1.688a18.422,18.422,0,0,1-.519,4.217,18.206,18.206,0,0,1-.762,2.394A18.535,18.535,0,0,1,17.224,18.2a.566.566,0,0,1-.21.208.558.558,0,0,1-.274.073ZM4.988,10.467l-.027-.019a.579.579,0,0,1-.106-.8A18.314,18.314,0,0,1,6.674,7.568,17.685,17.685,0,0,1,12.22,3.883c.513-.216,1.04-.408,1.563-.571.425-.132.85-.246,1.265-.339a10.365,10.365,0,0,1,1.259-.214l.05,0a.555.555,0,0,1,.353.128.449.449,0,0,1,.218.138.463.463,0,0,1-.219.75.553.553,0,0,1-.3.125,10.833,10.833,0,0,0-1.52.3,16.327,16.327,0,0,0-1.614.514,17.108,17.108,0,0,0-1.96.881A16.86,16.86,0,0,0,8.566,7.457,16.687,16.687,0,0,0,7.2,8.734a16.983,16.983,0,0,0-1.3,1.539.453.453,0,0,1-.239.164.555.555,0,0,1-.669.03Z" transform="translate(-15953.163 -14496.88)" fill="#1a584d"/>
  </g>
</svg>
