<svg id="Group_289" data-name="Group 289" xmlns="http://www.w3.org/2000/svg" width="19.456" height="17.852" viewBox="0 0 19.456 17.852">
  <path id="Path_17672" data-name="Path 17672" d="M194.1,18.908h-7.7a1.3,1.3,0,0,1-1.3-1.3V5.569a1.3,1.3,0,0,1,1.3-1.3h14.444a1.3,1.3,0,0,1,1.3,1.3V9.782a.5.5,0,0,1-1,0V5.569a.3.3,0,0,0-.3-.3H186.408a.3.3,0,0,0-.3.3V17.606a.3.3,0,0,0,.3.3h7.7a.5.5,0,0,1,0,1Z" transform="translate(-185.106 -2.663)" fill="#424446"/>
  <path id="Line_1026" data-name="Line 1026" d="M16.049.5H0A.5.5,0,0,1-.5,0,.5.5,0,0,1,0-.5H16.049a.5.5,0,0,1,.5.5A.5.5,0,0,1,16.049.5Z" transform="translate(0.5 6.117)" fill="#424446"/>
  <path id="Line_1027" data-name="Line 1027" d="M0,2.907a.5.5,0,0,1-.5-.5V0A.5.5,0,0,1,0-.5.5.5,0,0,1,.5,0V2.407A.5.5,0,0,1,0,2.907Z" transform="translate(3.71 0.5)" fill="#424446"/>
  <path id="Line_1028" data-name="Line 1028" d="M0,2.907a.5.5,0,0,1-.5-.5V0A.5.5,0,0,1,0-.5.5.5,0,0,1,.5,0V2.407A.5.5,0,0,1,0,2.907Z" transform="translate(13.339 0.5)" fill="#424446"/>
  <path id="Ellipse_107" data-name="Ellipse 107" d="M4.012-.5A4.512,4.512,0,1,1-.5,4.012,4.517,4.517,0,0,1,4.012-.5Zm0,8.024A3.512,3.512,0,1,0,.5,4.012,3.516,3.516,0,0,0,4.012,7.524Z" transform="translate(10.932 9.327)" fill="#424446"/>
  <path id="Line_1029" data-name="Line 1029" d="M0,2.907a.5.5,0,0,1-.5-.5V0A.5.5,0,0,1,0-.5.5.5,0,0,1,.5,0V2.407A.5.5,0,0,1,0,2.907Z" transform="translate(14.944 10.932)" fill="#424446"/>
  <path id="Line_1030" data-name="Line 1030" d="M1.6,2.1a.5.5,0,0,1-.354-.146l-1.6-1.6a.5.5,0,0,1,0-.707.5.5,0,0,1,.707,0l1.6,1.6A.5.5,0,0,1,1.6,2.1Z" transform="translate(14.944 13.339)" fill="#424446"/>
</svg>
